<?xml version="1.0" encoding="utf-8"?>
<!-- Generator: Adobe Illustrator 21.0.2, SVG Export Plug-In . SVG Version: 6.00 Build 0)  -->
<svg version="1.1" id="Layer_1" xmlns="http://www.w3.org/2000/svg" xmlns:xlink="http://www.w3.org/1999/xlink" x="0px" y="0px"
	 viewBox="0 0 40 40" style="enable-background:new 0 0 40 40;" xml:space="preserve">
<style type="text/css">
	.st0{fill:#FAFAFA;}
</style>
<g>
	<g>
		<g>
			<path class="st0" d="M7.2,8.2c0-0.6,0.4-1,1-1h5.3c0.6,0,1,0.4,1,1v5.5c0,0.5-0.4,1-1,1H8.2c-0.6,0-1-0.5-1-1V8.2z"/>
		</g>
	</g>
</g>
<g>
	<g>
		<g>
			<path class="st0" d="M16.4,8.2c0-0.6,0.4-1,1-1h5.3c0.6,0,1,0.4,1,1v5.5c0,0.5-0.4,1-1,1h-5.3c-0.6,0-1-0.5-1-1V8.2z"/>
		</g>
	</g>
</g>
<g>
	<g>
		<g>
			<path class="st0" d="M25.5,8.2c0-0.6,0.5-1,1-1h5.3c0.5,0,1,0.4,1,1v5.5c0,0.5-0.5,1-1,1h-5.3c-0.5,0-1-0.5-1-1V8.2z"/>
		</g>
	</g>
</g>
<g>
	<g>
		<g>
			<path class="st0" d="M7.2,17.3c0-0.6,0.4-1,1-1h5.3c0.6,0,1,0.4,1,1v5.5c0,0.6-0.4,1-1,1H8.2c-0.6,0-1-0.4-1-1V17.3z"/>
		</g>
	</g>
</g>
<g>
	<g>
		<g>
			<path class="st0" d="M16.4,17.3c0-0.6,0.4-1,1-1h5.3c0.6,0,1,0.4,1,1v5.5c0,0.6-0.4,1-1,1h-5.3c-0.6,0-1-0.4-1-1V17.3z"/>
		</g>
	</g>
</g>
<g>
	<g>
		<g>
			<path class="st0" d="M25.5,17.3c0-0.6,0.5-1,1-1h5.3c0.5,0,1,0.4,1,1v5.5c0,0.6-0.5,1-1,1h-5.3c-0.5,0-1-0.4-1-1V17.3z"/>
		</g>
	</g>
</g>
<g>
	<g>
		<g>
			<path class="st0" d="M7.2,26.3c0-0.6,0.4-1,1-1h5.3c0.6,0,1,0.4,1,1v5.5c0,0.5-0.4,1-1,1H8.2c-0.6,0-1-0.5-1-1V26.3z"/>
		</g>
	</g>
</g>
<g>
	<g>
		<g>
			<path class="st0" d="M16.4,26.3c0-0.6,0.4-1,1-1h5.3c0.6,0,1,0.4,1,1v5.5c0,0.5-0.4,1-1,1h-5.3c-0.6,0-1-0.5-1-1V26.3z"/>
		</g>
	</g>
</g>
<g>
	<g>
		<g>
			<path class="st0" d="M25.5,26.3c0-0.6,0.5-1,1-1h5.3c0.5,0,1,0.4,1,1v5.5c0,0.5-0.5,1-1,1h-5.3c-0.5,0-1-0.5-1-1V26.3z"/>
		</g>
	</g>
</g>
</svg>
