<?xml version="1.0" encoding="utf-8"?>
<!-- Generator: Adobe Illustrator 21.0.2, SVG Export Plug-In . SVG Version: 6.00 Build 0)  -->
<svg version="1.1" id="Layer_1" xmlns="http://www.w3.org/2000/svg" xmlns:xlink="http://www.w3.org/1999/xlink" x="0px" y="0px"
	 viewBox="0 0 40 40" style="enable-background:new 0 0 40 40;" xml:space="preserve">
<style type="text/css">
	.st0{fill:#FAFAFA;}
</style>
<g>
	<g>
		<g>
			<g>
				<path class="st0" d="M7.2,8c0-0.5,0.4-0.9,0.9-0.9h4.7c0.5,0,0.9,0.4,0.9,0.9V13c0,0.4-0.4,0.9-0.9,0.9H8.1
					c-0.5,0-0.9-0.4-0.9-0.9V8z"/>
			</g>
		</g>
	</g>
	<g>
		<g>
			<g>
				<path class="st0" d="M7.2,17.5c0-0.5,0.4-0.9,0.9-0.9h4.7c0.5,0,0.9,0.4,0.9,0.9v4.9c0,0.4-0.4,0.9-0.9,0.9H8.1
					c-0.5,0-0.9-0.4-0.9-0.9V17.5z"/>
			</g>
		</g>
	</g>
	<g>
		<g>
			<g>
				<path class="st0" d="M7.2,27c0-0.5,0.4-0.9,0.9-0.9h4.7c0.5,0,0.9,0.4,0.9,0.9v4.9c0,0.4-0.4,0.9-0.9,0.9H8.1
					c-0.5,0-0.9-0.4-0.9-0.9V27z"/>
			</g>
		</g>
	</g>
	<g>
		<g>
			<g>
				<path class="st0" d="M16.8,8.1c0-0.5,0.4-0.9,0.9-0.9h4.7c0.5,0,0.9,0.4,0.9,0.9V13c0,0.4-0.4,0.9-0.9,0.9h-4.7
					c-0.5,0-0.9-0.4-0.9-0.9V8.1z"/>
			</g>
		</g>
	</g>
	<g>
		<g>
			<g>
				<path class="st0" d="M16.8,17.6c0-0.5,0.4-0.9,0.9-0.9h4.7c0.5,0,0.9,0.4,0.9,0.9v4.9c0,0.4-0.4,0.9-0.9,0.9h-4.7
					c-0.5,0-0.9-0.4-0.9-0.9V17.6z"/>
			</g>
		</g>
	</g>
	<g>
		<g>
			<g>
				<path class="st0" d="M16.8,27c0-0.5,0.4-0.9,0.9-0.9h4.7c0.5,0,0.9,0.4,0.9,0.9v4.9c0,0.4-0.4,0.9-0.9,0.9h-4.7
					c-0.5,0-0.9-0.4-0.9-0.9V27z"/>
			</g>
		</g>
	</g>
	<g>
		<g>
			<g>
				<path class="st0" d="M26.3,8.1c0-0.5,0.4-0.9,0.9-0.9h4.7c0.5,0,0.9,0.4,0.9,0.9V13c0,0.4-0.4,0.9-0.9,0.9h-4.7
					c-0.5,0-0.9-0.4-0.9-0.9V8.1z"/>
			</g>
		</g>
	</g>
	<g>
		<g>
			<g>
				<path class="st0" d="M26.3,17.6c0-0.5,0.4-0.9,0.9-0.9h4.7c0.5,0,0.9,0.4,0.9,0.9v4.9c0,0.4-0.4,0.9-0.9,0.9h-4.7
					c-0.5,0-0.9-0.4-0.9-0.9V17.6z"/>
			</g>
		</g>
	</g>
	<g>
		<g>
			<g>
				<path class="st0" d="M26.3,27c0-0.5,0.4-0.9,0.9-0.9h4.7c0.5,0,0.9,0.4,0.9,0.9V32c0,0.4-0.4,0.9-0.9,0.9h-4.7
					c-0.5,0-0.9-0.4-0.9-0.9V27z"/>
			</g>
		</g>
	</g>
</g>
</svg>
