<?xml version="1.0" encoding="utf-8"?>
<!-- Generator: Adobe Illustrator 21.0.2, SVG Export Plug-In . SVG Version: 6.00 Build 0)  -->
<svg version="1.1" id="Layer_1" xmlns="http://www.w3.org/2000/svg" xmlns:xlink="http://www.w3.org/1999/xlink" x="0px" y="0px"
	 viewBox="0 0 300 86" style="enable-background:new 0 0 300 86;" xml:space="preserve">
<style type="text/css">
	.st0{fill:#FAFAFA;}
</style>
<path class="st0" d="M161,85c-1.2-0.1-2.5-0.2-3.7-0.3c-2.5-0.6-5-1.2-7.4-1.9c-0.3-0.1-0.6-0.2-0.8-0.3c-0.2-0.1-0.4-0.2-0.7-0.3
	c-0.9-0.5-1.9-1-2.8-1.5c-0.2-0.4-0.5-0.5-0.9-0.6l0,0c-2.2-1.9-4.4-3.8-6.6-5.7l0,0c-2.1-2.7-4.2-5.5-5.6-8.7
	c-0.2,5.1-0.3,10.1-0.1,15.2c0.1,1.9-0.6,2.3-2.4,2.3c-4.2-0.1-8.4,0-12.6,0.1c-0.4-1-0.2-2-0.2-3c0-9.4,0-18.7-0.1-28.1
	c0-0.9-0.1-1.7-0.2-2.6c0,0,0.1-0.1,0.1-0.1c0-0.1-0.1-0.2-0.1-0.3c0.2-1.9-0.2-3.8-0.5-5.6c-1.5-7.3-8.1-10.3-14.7-6.7
	c-5.2,2.8-6.9,7.7-7.2,13.1c-0.6,9.7-0.2,19.4-0.3,29.1c0,4.1,0,4.1-4.2,4.1c-3,0-6-0.1-8.9,0c-1.7,0.1-2.1-0.5-2.1-2.1
	c0.1-9.7,0-19.4,0-29.1c0-2.7-0.2-5.5-0.8-8.2c-1-4.1-3-7.3-7.4-8.1c-4.5-0.9-8.3,0.7-11.3,4.2c-2.5,3-3.3,6.7-3.5,10.5
	c-0.6,10-0.2,20-0.2,30c0,2-0.3,2.9-2.6,2.8c-3.5-0.2-7-0.1-10.6,0c-1.5,0-2.1-0.4-2-2c0.1-2.1,0-4.2,0-6.9
	c-3.4,5.5-7.8,8.7-13.5,9.8c-10.3,2-19.2-0.2-26.4-8.3c-0.9-1-0.8-1.5,0.1-2.4c2.5-2.5,4.8-5.1,7.1-7.8c0.8-0.9,1.3-1,2.2,0
	c2.5,2.7,5.6,4.5,9.1,5.5c2.1,0.5,4.2,0.5,6.2-0.6c3-1.6,3.6-4.4,1.3-7c-1.2-1.3-2.6-2.2-4.1-3c-3-1.6-6-3.1-8.9-4.7
	c-2.1-1.2-4.1-2.6-5.9-4.3C-2.4,42.1,1.2,26.9,14.5,23c8.9-2.6,16.9-0.6,23.7,5.7c0.6,0.6,1.1,1.3,1.6,1.9c0.2-0.1,0.4-0.2,0.6-0.2
	c0-1.7,0.1-3.3,0-5c-0.1-1.4,0.3-2,1.8-1.9c3.9,0.1,7.8,0.1,11.7,0c1.2,0,1.7,0.4,1.6,1.6c-0.1,1.5,0,3.1,0,5.2
	c5.5-5.6,11.7-8.4,19.1-8.3c7.7,0.1,13.2,3.8,17.1,10.6c6.1-8.2,14.2-11.8,24.1-10.3c9.8,1.5,14.1,6.8,16.3,19.1
	c0.8-0.1,0.7-1,1-1.5c4.4-8.6,11.1-14.4,20.5-17c0.4-0.1,0.9-0.3,1.3-0.4c1.2-0.2,2.5-0.3,3.7-0.5c0.5,0,0.9,0,1.4-0.1
	c2.8,0.2,5.6,0.5,8.4,0.7c0.6,0.2,1.2,0.3,1.9,0.5c0.3,0.1,0.7,0.2,1,0.3c0.3,0.1,0.6,0.2,0.9,0.4c0.2,0.1,0.4,0.1,0.7,0.2
	c0.2,0.1,0.5,0.2,0.7,0.4c4,1.6,7.4,4.3,10.7,7c1.8,1.5,2.9,3.8,4.4,5.8c-0.1,0.8,0.5,1.1,0.9,1.6c0.6,1.6,1.3,3.2,1.9,4.9
	c0.1,0,0.3,0,0.4-0.1c0-0.9,0-1.8,0-2.7c0-12.7,0-25.3,0-38c0-1.7,0.3-2.5,2.2-2.4c3.6,0.2,7.2,0.1,10.8,0c1.7-0.1,2.1,0.4,2.1,2.1
	c-0.1,14.2,0,28.5,0,42.7c0,0.7,0,1.5,0,2.3c1.7-0.5,1.8-2,2.6-2.9c3.7-3.9,7.3-7.9,10.9-11.9c2.5-2.8,5-5.6,7.5-8.5
	c0.5-0.6,1-0.8,1.8-0.8c5.9,0,11.7,0,17.6,0c0.3,0.9-0.5,1.2-0.8,1.6c-7.6,8.5-15.2,17-22.9,25.4c-1.1,1.2-1.2,1.9,0,3.2
	c8.7,9.3,17.4,18.7,26,28c0.3,0.4,0.9,0.6,0.9,1.6c-4.7,0-9.3-0.2-14,0.1c-3,0.1-5-0.7-7-3c-7.2-8.1-14.7-16-22.1-24
	c-0.9,0.4-0.5,1.2-0.5,1.7c0,7.7-0.1,15.3,0,23c0,1.9-0.6,2.4-2.4,2.3c-3.6-0.1-7.2-0.1-10.8,0c-1.6,0-2-0.5-1.9-2
	c0.1-5.9,0-11.9,0-17.8c-0.4-0.2-0.6,0.1-0.7,0.4c-4.9,12.8-14.2,19.6-27.7,20.9c-0.2,0-0.5,0.1-0.7,0.2c-0.3,0-0.6,0-0.9,0
	C161.7,85,161.3,85,161,85z M153.4,50.3c-6.3,0.5-8.9,4.3-7.1,9.8c2.5,7.6,10.2,12,18.2,10.5c8.7-1.6,14.1-9.2,13.4-18.9
	c-0.5-6.7-3.5-11.9-10-14.4c-6.4-2.5-12.5-1.5-17.6,3.3c-1.6,1.5-2.7,3.2-3.8,5.6c0.8-0.3,1.1-0.4,1.5-0.6c0.4-0.1,0.7-0.3,1.1-0.4
	c5.4-1.7,10.4-0.8,14.7,3c3.2,2.9,3.9,7.1,2,10.9c-2,4-7.6,5.4-11.6,3c-4-2.4-4.6-6.6-1.6-10.7C152.8,51.2,153,50.9,153.4,50.3z
	 M40.4,33.2c-0.2-0.1-0.4-0.2-0.5-0.4c-1.5,1.6-3,3.3-4.6,4.9C32,41,32,41,28.5,38.4c-0.6-0.4-1.1-0.8-1.8-1.2
	c-2.5-1.4-5-2.1-7.9-1.2c-1.4,0.5-2.5,1.4-2.7,2.9c-0.2,1.5,0.5,2.6,1.8,3.3c1.4,0.9,2.8,1.6,4.3,2.4c6.6,3.4,13.7,6.1,18.2,13.2
	C40.4,49.3,40.4,41.2,40.4,33.2z"/>
<path class="st0" d="M275.8,57.8c-7.4,0-14.9,0-22.3,0c-1.8,0-2.1,0.5-1.6,2.1c1.9,6.4,7,10.8,13.6,11.6c6.1,0.7,11.7-0.6,16.4-4.7
	c0.9-0.8,1.6-0.9,2.7-0.3c3.1,1.5,6.2,3,9.3,4.4c1.5,0.7,1.8,1.2,0.6,2.6c-6,7.4-13.9,10.8-23.2,11.4c-14.5,1-27.2-6.2-32.2-18.7
	c-4.5-11.2-3.4-28.6,11-39c3.5-2.5,7.4-4.3,11.3-4.8c11.6-1.3,22.6,0.5,30.8,10.1c5.9,6.9,7.8,15.1,7.7,24c0,1.5-1,1.3-1.9,1.3
	C290.7,57.8,283.2,57.8,275.8,57.8z M268.6,46c4.5,0,9.1,0,13.6,0c2.8,0,2.9,0,1.5-2.6c-3.4-6.2-8.9-8.8-15.7-8.6
	c-6.9,0.2-12,3.4-15.1,9.7c-0.8,1.6,0.1,1.5,1.2,1.5C258.9,46,263.7,46,268.6,46z"/>
</svg>
